<svg width="31" height="31" viewBox="0 0 31 31" fill="none" xmlns="http://www.w3.org/2000/svg">
<path d="M21.9583 10.3333H24.5417C25.9684 10.3333 27.125 11.4899 27.125 12.9166V20.6666C27.125 22.0934 25.9684 23.25 24.5417 23.25H21.9583V28.4166L16.7917 23.25H11.625C10.9116 23.25 10.2658 22.9608 9.79831 22.4933M9.79831 22.4933L14.2083 18.0833H19.375C20.8017 18.0833 21.9583 16.9267 21.9583 15.5V7.74996C21.9583 6.32322 20.8017 5.16663 19.375 5.16663H6.45833C5.0316 5.16663 3.875 6.32322 3.875 7.74996V15.5C3.875 16.9267 5.0316 18.0833 6.45833 18.0833H9.04167V23.25L9.79831 22.4933Z" stroke="#EEF2FF" stroke-width="2" stroke-linecap="round" stroke-linejoin="round"/>
</svg>
