<svg width="25" height="25" viewBox="0 0 25 25" fill="none" xmlns="http://www.w3.org/2000/svg">
<rect width="25" height="25" rx="12.5" fill="#6366F1"/>
<path d="M18.5645 6.7648C17.4491 6.23724 16.253 5.84855 15.0024 5.62593C14.9797 5.62164 14.9569 5.63237 14.9452 5.65385C14.7913 5.93588 14.621 6.3038 14.5016 6.59299C13.1565 6.38541 11.8184 6.38541 10.5009 6.59299C10.3815 6.29738 10.2049 5.93588 10.0504 5.65385C10.0387 5.63309 10.0159 5.62235 9.99316 5.62593C8.74327 5.84784 7.54718 6.23652 6.4311 6.7648C6.42144 6.76909 6.41316 6.77626 6.40766 6.78556C4.13893 10.2795 3.51743 13.6875 3.82232 17.0533C3.8237 17.0697 3.83267 17.0855 3.84508 17.0955C5.34192 18.2286 6.79187 18.9165 8.21489 19.3725C8.23767 19.3797 8.2618 19.3711 8.27629 19.3517C8.61291 18.8779 8.91297 18.3782 9.17024 17.8528C9.18543 17.822 9.17093 17.7855 9.1399 17.7734C8.66395 17.5873 8.21075 17.3603 7.7748 17.1027C7.74032 17.0819 7.73756 17.0311 7.76928 17.0067C7.86102 16.9359 7.95279 16.8621 8.04038 16.7877C8.05623 16.7741 8.07832 16.7712 8.09695 16.7798C10.9609 18.1277 14.0615 18.1277 16.8917 16.7798C16.9104 16.7705 16.9325 16.7734 16.949 16.787C17.0366 16.8614 17.1284 16.9359 17.2208 17.0067C17.2525 17.0311 17.2504 17.0819 17.216 17.1027C16.78 17.3653 16.3268 17.5873 15.8502 17.7727C15.8191 17.7848 15.8053 17.822 15.8205 17.8528C16.0833 18.3775 16.3834 18.8771 16.7138 19.351C16.7276 19.3711 16.7524 19.3797 16.7752 19.3725C18.2051 18.9165 19.655 18.2286 21.1519 17.0955C21.165 17.0855 21.1733 17.0704 21.1747 17.054C21.5395 13.1628 20.5635 9.78269 18.5872 6.78627C18.5824 6.77626 18.5742 6.76909 18.5645 6.7648ZM9.59793 15.0039C8.73568 15.0039 8.0252 14.1878 8.0252 13.1857C8.0252 12.1835 8.7219 11.3675 9.59793 11.3675C10.4808 11.3675 11.1844 12.1907 11.1706 13.1857C11.1706 14.1878 10.4739 15.0039 9.59793 15.0039ZM15.4128 15.0039C14.5506 15.0039 13.8401 14.1878 13.8401 13.1857C13.8401 12.1835 14.5368 11.3675 15.4128 11.3675C16.2958 11.3675 16.9993 12.1907 16.9856 13.1857C16.9856 14.1878 16.2958 15.0039 15.4128 15.0039Z" fill="white"/>
</svg>
