<svg width="25" height="25" viewBox="0 0 25 25" fill="none" xmlns="http://www.w3.org/2000/svg">
<rect width="25" height="25" rx="12.5" fill="#6366F1"/>
<path d="M12.502 6.35191C14.506 6.35191 14.7413 6.36084 15.5333 6.39657C16.2659 6.42933 16.6619 6.55142 16.9269 6.65564C17.2783 6.79261 17.5284 6.95341 17.7905 7.21546C18.0525 7.4775 18.2163 7.72763 18.3503 8.07901C18.4516 8.34403 18.5766 8.74007 18.6094 9.4726C18.6451 10.2647 18.654 10.4999 18.654 12.504C18.654 14.508 18.6451 14.7432 18.6094 15.5353C18.5766 16.2679 18.4545 16.6639 18.3503 16.9289C18.2133 17.2803 18.0525 17.5304 17.7905 17.7925C17.5284 18.0545 17.2783 18.2183 16.9269 18.3523C16.6619 18.4535 16.2659 18.5786 15.5333 18.6114C14.7413 18.6471 14.506 18.656 12.502 18.656C10.4979 18.656 10.2627 18.6471 9.47061 18.6114C8.73808 18.5786 8.34203 18.4565 8.07701 18.3523C7.72563 18.2153 7.4755 18.0545 7.21346 17.7925C6.95141 17.5304 6.78764 17.2803 6.65364 16.9289C6.55239 16.6639 6.42733 16.2679 6.39457 15.5353C6.35884 14.7432 6.34991 14.508 6.34991 12.504C6.34991 10.4999 6.35884 10.2647 6.39457 9.4726C6.42733 8.74007 6.54942 8.34403 6.65364 8.07901C6.79062 7.72763 6.95141 7.4775 7.21346 7.21546C7.4755 6.95341 7.72563 6.78964 8.07701 6.65564C8.34203 6.55439 8.73808 6.42933 9.47061 6.39657C10.2627 6.35786 10.5009 6.35191 12.502 6.35191ZM12.502 5C10.4652 5 10.2091 5.00893 9.40807 5.04467C8.61003 5.0804 8.0651 5.20844 7.58866 5.39307C7.09435 5.58364 6.67746 5.84271 6.26057 6.25959C5.84368 6.67648 5.5876 7.09635 5.39404 7.58768C5.20942 8.06412 5.08138 8.60905 5.04564 9.41007C5.00991 10.2081 5.00098 10.4642 5.00098 12.501C5.00098 14.5378 5.00991 14.7939 5.04564 15.5949C5.08138 16.3929 5.20942 16.9379 5.39404 17.4173C5.58462 17.9116 5.84368 18.3285 6.26057 18.7454C6.67746 19.1623 7.09733 19.4183 7.58866 19.6119C8.0651 19.7965 8.61003 19.9246 9.41105 19.9603C10.2121 19.996 10.4652 20.005 12.505 20.005C14.5447 20.005 14.7978 19.996 15.5989 19.9603C16.3969 19.9246 16.9418 19.7965 17.4212 19.6119C17.9156 19.4213 18.3324 19.1623 18.7493 18.7454C19.1662 18.3285 19.4223 17.9086 19.6159 17.4173C19.8005 16.9408 19.9285 16.3959 19.9643 15.5949C20 14.7939 20.0089 14.5408 20.0089 12.501C20.0089 10.4612 20 10.2081 19.9643 9.40709C19.9285 8.60905 19.8005 8.06412 19.6159 7.5847C19.4253 7.09039 19.1662 6.6735 18.7493 6.25662C18.3324 5.83973 17.9126 5.58364 17.4212 5.39009C16.9448 5.20547 16.3999 5.07742 15.5989 5.04169C14.7949 5.00893 14.5388 5 12.502 5Z" fill="white"/>
<path d="M12.502 6.35191C14.506 6.35191 14.7413 6.36084 15.5333 6.39657C16.2659 6.42933 16.6619 6.55142 16.9269 6.65564C17.2783 6.79261 17.5284 6.95341 17.7905 7.21546C18.0525 7.4775 18.2163 7.72763 18.3503 8.07901C18.4516 8.34403 18.5766 8.74007 18.6094 9.4726C18.6451 10.2647 18.654 10.4999 18.654 12.504C18.654 14.508 18.6451 14.7432 18.6094 15.5353C18.5766 16.2679 18.4545 16.6639 18.3503 16.9289C18.2133 17.2803 18.0525 17.5304 17.7905 17.7925C17.5284 18.0545 17.2783 18.2183 16.9269 18.3523C16.6619 18.4535 16.2659 18.5786 15.5333 18.6114C14.7413 18.6471 14.506 18.656 12.502 18.656C10.4979 18.656 10.2627 18.6471 9.47061 18.6114C8.73808 18.5786 8.34203 18.4565 8.07701 18.3523C7.72563 18.2153 7.4755 18.0545 7.21346 17.7925C6.95141 17.5304 6.78764 17.2803 6.65364 16.9289C6.55239 16.6639 6.42733 16.2679 6.39457 15.5353C6.35884 14.7432 6.34991 14.508 6.34991 12.504C6.34991 10.4999 6.35884 10.2647 6.39457 9.4726C6.42733 8.74007 6.54942 8.34403 6.65364 8.07901C6.79062 7.72763 6.95141 7.4775 7.21346 7.21546C7.4755 6.95341 7.72563 6.78964 8.07701 6.65564C8.34203 6.55439 8.73808 6.42933 9.47061 6.39657C10.2627 6.35786 10.5009 6.35191 12.502 6.35191Z" fill="white"/>
<path d="M12.5019 8.65088C10.3758 8.65088 8.64868 10.375 8.64868 12.5041C8.64868 14.6332 10.3728 16.3573 12.5019 16.3573C14.631 16.3573 16.3551 14.6332 16.3551 12.5041C16.3551 10.375 14.631 8.65088 12.5019 8.65088ZM12.5019 15.0025C11.1202 15.0025 10.0006 13.8828 10.0006 12.5011C10.0006 11.1194 11.1202 9.99981 12.5019 9.99981C13.8836 9.99981 15.0032 11.1194 15.0032 12.5011C15.0032 13.8828 13.8836 15.0025 12.5019 15.0025Z" fill="#6366F1"/>
<path d="M16.5072 9.39525C17.0039 9.39525 17.4065 8.99263 17.4065 8.49597C17.4065 7.9993 17.0039 7.59668 16.5072 7.59668C16.0105 7.59668 15.6079 7.9993 15.6079 8.49597C15.6079 8.99263 16.0105 9.39525 16.5072 9.39525Z" fill="#6366F1"/>
</svg>
