<svg width="25" height="25" viewBox="0 0 25 25" fill="none" xmlns="http://www.w3.org/2000/svg">
<rect width="25" height="25" rx="12.5" fill="#6366F1"/>
<path fill-rule="evenodd" clip-rule="evenodd" d="M5.65831 12.3679C9.30231 10.7803 11.7322 9.73365 12.948 9.22795C16.4194 7.78409 17.1407 7.53327 17.6109 7.52499C17.7143 7.52317 17.9455 7.5488 18.0953 7.67032C18.2217 7.77293 18.2565 7.91155 18.2732 8.00883C18.2898 8.10612 18.3105 8.32775 18.2941 8.50092C18.106 10.4775 17.292 15.274 16.8779 17.4878C16.7027 18.4245 16.3576 18.7386 16.0236 18.7693C15.2977 18.8361 14.7465 18.2896 14.0434 17.8287C12.9433 17.1076 12.3218 16.6586 11.2539 15.9549C10.0197 15.1416 10.8198 14.6946 11.5231 13.9641C11.7072 13.7729 14.9055 10.8638 14.9674 10.5999C14.9751 10.5669 14.9823 10.4439 14.9092 10.3789C14.8361 10.3139 14.7283 10.3362 14.6504 10.3538C14.5401 10.3789 12.7825 11.5405 9.37784 13.8388C8.87897 14.1814 8.42711 14.3483 8.02226 14.3395C7.57595 14.3299 6.71742 14.0872 6.07919 13.8797C5.29637 13.6252 4.67421 13.4907 4.72839 13.0586C4.7566 12.8335 5.06658 12.6033 5.65831 12.3679Z" fill="white"/>
</svg>
