<svg width="25" height="25" viewBox="0 0 25 25" fill="none" xmlns="http://www.w3.org/2000/svg">
<rect width="25" height="25" rx="12.5" fill="#6366F1"/>
<path d="M4.91748 19.7711L5.98929 15.879C5.32665 14.7366 4.97904 13.4429 4.98266 12.1203C4.98266 7.97596 8.37188 4.60645 12.5324 4.60645C14.5529 4.60645 16.4503 5.38846 17.8733 6.80834C19.3 8.22822 20.0857 10.1166 20.0821 12.1239C20.0821 16.2682 16.6929 19.6377 12.5288 19.6377H12.5251C11.2614 19.6377 10.0194 19.3206 8.91503 18.7224L4.91748 19.7711ZM9.10694 17.3638L9.33506 17.5007C10.2982 18.0701 11.4026 18.3692 12.5288 18.3728H12.5324C15.9904 18.3728 18.8075 15.5727 18.8075 12.1275C18.8075 10.459 18.1557 8.89131 16.9717 7.70928C15.7876 6.52725 14.2089 5.87857 12.5324 5.87857C9.07435 5.87497 6.25724 8.67509 6.25724 12.1203C6.25724 13.2987 6.58675 14.4483 7.21679 15.443L7.36525 15.6808L6.73158 17.9836L9.10694 17.3638Z" fill="white"/>
<path d="M5.18188 19.5081L6.21748 15.7494C5.57657 14.6502 5.23982 13.3997 5.23982 12.124C5.24344 8.12382 8.51317 4.86963 12.5324 4.86963C14.4841 4.86963 16.3127 5.62642 17.6887 6.99585C19.0647 8.36528 19.8215 10.1888 19.8215 12.1276C19.8215 16.1278 16.5481 19.382 12.5324 19.382H12.5288C11.3086 19.382 10.11 19.0756 9.04546 18.499L5.18188 19.5081Z" fill="#6366F1"/>
<path d="M4.91748 19.7711L5.98929 15.879C5.32665 14.7366 4.97904 13.4429 4.98266 12.1203C4.98266 7.97596 8.37188 4.60645 12.5324 4.60645C14.5529 4.60645 16.4503 5.38846 17.8733 6.80834C19.3 8.22822 20.0857 10.1166 20.0821 12.1239C20.0821 16.2682 16.6929 19.6377 12.5288 19.6377H12.5251C11.2614 19.6377 10.0194 19.3206 8.91503 18.7224L4.91748 19.7711ZM9.10694 17.3638L9.33506 17.5007C10.2982 18.0701 11.4026 18.3692 12.5288 18.3728H12.5324C15.9904 18.3728 18.8075 15.5727 18.8075 12.1275C18.8075 10.459 18.1557 8.89131 16.9717 7.70928C15.7876 6.52725 14.2089 5.87857 12.5324 5.87857C9.07435 5.87497 6.25724 8.67509 6.25724 12.1203C6.25724 13.2987 6.58675 14.4483 7.21679 15.443L7.36525 15.6808L6.73158 17.9836L9.10694 17.3638Z" fill="white"/>
<path fill-rule="evenodd" clip-rule="evenodd" d="M10.6458 8.97784C10.5046 8.66432 10.3562 8.65711 10.2222 8.65351C10.1136 8.6499 9.98682 8.6499 9.86008 8.6499C9.73335 8.6499 9.53058 8.69675 9.35677 8.88415C9.18296 9.07154 8.69775 9.52562 8.69775 10.4518C8.69775 11.3743 9.37487 12.2681 9.46902 12.3942C9.56316 12.5203 10.7762 14.4772 12.6917 15.2304C14.2849 15.8574 14.6108 15.7313 14.9548 15.6989C15.2988 15.6664 16.07 15.2448 16.2294 14.8051C16.3851 14.3655 16.3851 13.9907 16.338 13.9114C16.2909 13.8321 16.1642 13.7853 15.9759 13.6916C15.7876 13.5979 14.8606 13.1438 14.6868 13.0789C14.513 13.0177 14.3863 12.9852 14.2632 13.1726C14.1364 13.36 13.7743 13.7817 13.6657 13.9078C13.5571 14.0339 13.4448 14.0483 13.2565 13.9546C13.0683 13.8609 12.4599 13.6627 11.7394 13.0213C11.1781 12.5239 10.7979 11.9077 10.6893 11.7203C10.5807 11.5329 10.6784 11.432 10.7726 11.3383C10.8558 11.2554 10.9609 11.1185 11.055 11.0104C11.1491 10.9023 11.1817 10.823 11.2433 10.6968C11.3048 10.5707 11.2759 10.4626 11.2288 10.3689C11.1817 10.2788 10.8124 9.34903 10.6458 8.97784Z" fill="white"/>
</svg>
